<?xml version="1.0" standalone="no"?><!DOCTYPE svg PUBLIC "-//W3C//DTD SVG 1.1//EN" "http://www.w3.org/Graphics/SVG/1.1/DTD/svg11.dtd"><svg t="1524540328527" class="icon" style="" viewBox="0 0 1024 1024" version="1.1" xmlns="http://www.w3.org/2000/svg" p-id="11215" xmlns:xlink="http://www.w3.org/1999/xlink" width="200" height="200"><defs><style type="text/css"></style></defs><path d="M177.7 428.8C115 428.8 64 379.2 64 318.2c0-16.7 13.5-30.2 30.2-30.2s30.2 13.5 30.2 30.2c0 27.7 23.9 50.2 53.4 50.2s53.4-22.5 53.4-50.2c0-16.7 13.5-30.2 30.2-30.2s30.2 13.5 30.2 30.2c-0.1 61-51.2 110.6-113.9 110.6z" p-id="11216" fill="#d81e06"></path><path d="M344.9 428.8c-62.7 0-113.7-49.6-113.7-110.6 0-16.7 13.5-30.2 30.2-30.2s30.2 13.5 30.2 30.2c0 27.7 23.9 50.2 53.4 50.2 29.4 0 53.4-22.5 53.4-50.2 0-16.7 13.5-30.2 30.2-30.2s30.2 13.5 30.2 30.2c-0.2 61-51.3 110.6-113.9 110.6z" p-id="11217" fill="#d81e06"></path><path d="M512 428.8c-62.7 0-113.8-49.6-113.8-110.6 0-16.7 13.5-30.2 30.2-30.2s30.2 13.5 30.2 30.2c0 27.7 23.9 50.2 53.4 50.2 29.4 0 53.4-22.5 53.4-50.2 0-16.7 13.5-30.2 30.2-30.2s30.2 13.5 30.2 30.2c-0.1 61-51.1 110.6-113.8 110.6z" p-id="11218" fill="#d81e06"></path><path d="M679.1 428.8c-62.7 0-113.7-49.6-113.7-110.6 0-16.7 13.5-30.2 30.2-30.2s30.2 13.5 30.2 30.2c0 27.7 23.9 50.2 53.4 50.2 29.4 0 53.4-22.5 53.4-50.2 0-16.7 13.5-30.2 30.2-30.2s30.2 13.5 30.2 30.2c-0.1 61-51.2 110.6-113.9 110.6z" p-id="11219" fill="#d81e06"></path><path d="M846.2 428.8c-62.7 0-113.7-49.6-113.7-110.6 0-16.7 13.5-30.2 30.2-30.2s30.2 13.5 30.2 30.2c0 27.7 23.9 50.2 53.4 50.2s53.4-22.5 53.4-50.2c0-16.7 13.5-30.2 30.2-30.2s30.2 13.5 30.2 30.2c-0.1 61-51.1 110.6-113.9 110.6z" p-id="11220" fill="#d81e06"></path><path d="M94.2 341.7c-6.8 0-13.5-2.2-19.1-6.8-12.9-10.6-14.8-29.6-4.3-42.5l138.9-169.9c5.7-7 14.3-11.1 23.3-11.1h557.8c9.2 0 17.8 4.1 23.5 11.3L949 290.3c10.4 13 8.3 32-4.6 42.4-13 10.3-31.9 8.4-42.4-4.6L776.4 171.9h-529L117.5 330.7c-5.9 7.3-14.6 11-23.3 11zM846.2 912.5H177.7c-16.7 0-30.2-13.5-30.2-30.2V490.6c0-16.7 13.5-30.2 30.2-30.2s30.2 13.5 30.2 30.2v361.5H816V490.6c0-16.7 13.5-30.2 30.2-30.2s30.2 13.5 30.2 30.2v391.7c0 16.7-13.5 30.2-30.2 30.2z" p-id="11221" fill="#d81e06"></path><path d="M473.3 897.4H325.2c-7.7 0-13.9-6.2-13.9-13.9V567.2c0-7.7 6.2-13.9 13.9-13.9h148.1c7.7 0 13.9 6.2 13.9 13.9v316.3c0 7.7-6.2 13.9-13.9 13.9z m-134.2-27.9h120.3V581.1H339.1v288.4zM698.8 701.4H566.4c-7.7 0-13.9-6.2-13.9-13.9V567.2c0-7.7 6.2-13.9 13.9-13.9h132.4c7.7 0 13.9 6.2 13.9 13.9v120.3c0 7.7-6.2 13.9-13.9 13.9z m-118.5-27.9h104.6v-92.4H580.3v92.4z" p-id="11222" fill="#d81e06"></path></svg>